<?xml version="1.0" encoding="utf-8"?>
<!-- Generator: Adobe Illustrator 21.0.2, SVG Export Plug-In . SVG Version: 6.00 Build 0)  -->
<svg version="1.1" id="Слой_1" xmlns="http://www.w3.org/2000/svg" xmlns:xlink="http://www.w3.org/1999/xlink" x="0px" y="0px"
	 viewBox="0 0 74 74" style="enable-background:new 0 0 74 74;" xml:space="preserve">
<style type="text/css">
	.st0{fill:#623CEA;}
	.st1{fill:#FFFFFF;}
</style>
<g>
	<path class="st0" d="M29,3.3c4.4-4.4,11.5-4.4,15.9,0l25.8,25.8c4.4,4.4,4.4,11.5,0,15.9L45,70.7c-4.4,4.4-11.5,4.4-15.9,0L3.3,45
		c-4.4-4.4-4.4-11.5,0-15.9L29,3.3z"/>
</g>
<path class="st1" d="M26.9,34.7h21.4c1.2,0,2.3,1,2.3,2.3l0,0c0,1.2-1,2.3-2.3,2.3H26.9c-1.2,0-2.3-1-2.3-2.3l0,0
	C24.6,35.8,25.6,34.7,26.9,34.7z"/>
<path class="st1" d="M35.3,47.1V25.7c0-1.2,1-2.3,2.3-2.3l0,0c1.2,0,2.3,1,2.3,2.3v21.4c0,1.2-1,2.3-2.3,2.3l0,0
	C36.3,49.4,35.3,48.4,35.3,47.1z"/>
</svg>
