<svg width="191" height="119" viewBox="0 0 191 119" fill="none" xmlns="http://www.w3.org/2000/svg">
<g opacity="0.9">
<path fill-rule="evenodd" clip-rule="evenodd" d="M179.644 22.8846C181.54 22.8846 183.077 21.3477 183.077 19.4519C183.077 17.5561 181.54 16.0192 179.644 16.0192C177.748 16.0192 176.212 17.5561 176.212 19.4519C176.212 21.3477 177.748 22.8846 179.644 22.8846Z" fill="white"/>
<path fill-rule="evenodd" clip-rule="evenodd" d="M147.606 22.8846C149.502 22.8846 151.038 21.3477 151.038 19.4519C151.038 17.5561 149.502 16.0192 147.606 16.0192C145.71 16.0192 144.173 17.5561 144.173 19.4519C144.173 21.3477 145.71 22.8846 147.606 22.8846Z" fill="white"/>
<path fill-rule="evenodd" clip-rule="evenodd" d="M115.567 22.8846C117.463 22.8846 119 21.3477 119 19.4519C119 17.5561 117.463 16.0192 115.567 16.0192C113.671 16.0192 112.135 17.5561 112.135 19.4519C112.135 21.3477 113.671 22.8846 115.567 22.8846Z" fill="white"/>
<path fill-rule="evenodd" clip-rule="evenodd" d="M83.5288 22.8846C85.4247 22.8846 86.9615 21.3477 86.9615 19.4519C86.9615 17.5561 85.4247 16.0192 83.5288 16.0192C81.633 16.0192 80.0962 17.5561 80.0962 19.4519C80.0962 21.3477 81.633 22.8846 83.5288 22.8846Z" fill="white"/>
<path fill-rule="evenodd" clip-rule="evenodd" d="M51.4904 22.8846C53.3862 22.8846 54.9231 21.3477 54.9231 19.4519C54.9231 17.5561 53.3862 16.0192 51.4904 16.0192C49.5946 16.0192 48.0577 17.5561 48.0577 19.4519C48.0577 21.3477 49.5946 22.8846 51.4904 22.8846Z" fill="white"/>
<path fill-rule="evenodd" clip-rule="evenodd" d="M19.4519 22.8846C21.3477 22.8846 22.8846 21.3477 22.8846 19.4519C22.8846 17.5561 21.3477 16.0192 19.4519 16.0192C17.5561 16.0192 16.0192 17.5561 16.0192 19.4519C16.0192 21.3477 17.5561 22.8846 19.4519 22.8846Z" fill="white"/>
<path fill-rule="evenodd" clip-rule="evenodd" d="M163.625 22.8846C165.521 22.8846 167.058 21.3477 167.058 19.4519C167.058 17.5561 165.521 16.0192 163.625 16.0192C161.729 16.0192 160.192 17.5561 160.192 19.4519C160.192 21.3477 161.729 22.8846 163.625 22.8846Z" fill="white"/>
<path fill-rule="evenodd" clip-rule="evenodd" d="M131.587 22.8846C133.482 22.8846 135.019 21.3477 135.019 19.4519C135.019 17.5561 133.482 16.0192 131.587 16.0192C129.691 16.0192 128.154 17.5561 128.154 19.4519C128.154 21.3477 129.691 22.8846 131.587 22.8846Z" fill="white"/>
<path fill-rule="evenodd" clip-rule="evenodd" d="M99.5481 22.8846C101.444 22.8846 102.981 21.3477 102.981 19.4519C102.981 17.5561 101.444 16.0192 99.5481 16.0192C97.6523 16.0192 96.1154 17.5561 96.1154 19.4519C96.1154 21.3477 97.6523 22.8846 99.5481 22.8846Z" fill="white"/>
<path fill-rule="evenodd" clip-rule="evenodd" d="M67.5096 22.8846C69.4054 22.8846 70.9423 21.3477 70.9423 19.4519C70.9423 17.5561 69.4054 16.0192 67.5096 16.0192C65.6138 16.0192 64.0769 17.5561 64.0769 19.4519C64.0769 21.3477 65.6138 22.8846 67.5096 22.8846Z" fill="white"/>
<path fill-rule="evenodd" clip-rule="evenodd" d="M35.4712 22.8846C37.367 22.8846 38.9038 21.3477 38.9038 19.4519C38.9038 17.5561 37.367 16.0192 35.4712 16.0192C33.5753 16.0192 32.0385 17.5561 32.0385 19.4519C32.0385 21.3477 33.5753 22.8846 35.4712 22.8846Z" fill="white"/>
<path fill-rule="evenodd" clip-rule="evenodd" d="M3.43269 22.8846C5.32852 22.8846 6.86538 21.3477 6.86538 19.4519C6.86538 17.5561 5.32852 16.0192 3.43269 16.0192C1.53687 16.0192 0 17.5561 0 19.4519C0 21.3477 1.53687 22.8846 3.43269 22.8846Z" fill="white"/>
<path fill-rule="evenodd" clip-rule="evenodd" d="M179.644 54.9231C181.54 54.9231 183.077 53.3862 183.077 51.4904C183.077 49.5946 181.54 48.0577 179.644 48.0577C177.748 48.0577 176.212 49.5946 176.212 51.4904C176.212 53.3862 177.748 54.9231 179.644 54.9231Z" fill="white"/>
<path fill-rule="evenodd" clip-rule="evenodd" d="M147.606 54.9231C149.502 54.9231 151.038 53.3862 151.038 51.4904C151.038 49.5946 149.502 48.0577 147.606 48.0577C145.71 48.0577 144.173 49.5946 144.173 51.4904C144.173 53.3862 145.71 54.9231 147.606 54.9231Z" fill="white"/>
<path fill-rule="evenodd" clip-rule="evenodd" d="M115.567 54.9231C117.463 54.9231 119 53.3862 119 51.4904C119 49.5946 117.463 48.0577 115.567 48.0577C113.671 48.0577 112.135 49.5946 112.135 51.4904C112.135 53.3862 113.671 54.9231 115.567 54.9231Z" fill="white"/>
<path fill-rule="evenodd" clip-rule="evenodd" d="M83.5288 54.9231C85.4247 54.9231 86.9615 53.3862 86.9615 51.4904C86.9615 49.5946 85.4247 48.0577 83.5288 48.0577C81.633 48.0577 80.0962 49.5946 80.0962 51.4904C80.0962 53.3862 81.633 54.9231 83.5288 54.9231Z" fill="white"/>
<path fill-rule="evenodd" clip-rule="evenodd" d="M51.4904 54.9231C53.3862 54.9231 54.9231 53.3862 54.9231 51.4904C54.9231 49.5946 53.3862 48.0577 51.4904 48.0577C49.5946 48.0577 48.0577 49.5946 48.0577 51.4904C48.0577 53.3862 49.5946 54.9231 51.4904 54.9231Z" fill="white"/>
<path fill-rule="evenodd" clip-rule="evenodd" d="M19.4519 54.9231C21.3477 54.9231 22.8846 53.3862 22.8846 51.4904C22.8846 49.5946 21.3477 48.0577 19.4519 48.0577C17.5561 48.0577 16.0192 49.5946 16.0192 51.4904C16.0192 53.3862 17.5561 54.9231 19.4519 54.9231Z" fill="white"/>
<path fill-rule="evenodd" clip-rule="evenodd" d="M163.625 54.9231C165.521 54.9231 167.058 53.3862 167.058 51.4904C167.058 49.5946 165.521 48.0577 163.625 48.0577C161.729 48.0577 160.192 49.5946 160.192 51.4904C160.192 53.3862 161.729 54.9231 163.625 54.9231Z" fill="white"/>
<path fill-rule="evenodd" clip-rule="evenodd" d="M131.587 54.9231C133.482 54.9231 135.019 53.3862 135.019 51.4904C135.019 49.5946 133.482 48.0577 131.587 48.0577C129.691 48.0577 128.154 49.5946 128.154 51.4904C128.154 53.3862 129.691 54.9231 131.587 54.9231Z" fill="white"/>
<path fill-rule="evenodd" clip-rule="evenodd" d="M99.5481 54.9231C101.444 54.9231 102.981 53.3862 102.981 51.4904C102.981 49.5946 101.444 48.0577 99.5481 48.0577C97.6523 48.0577 96.1154 49.5946 96.1154 51.4904C96.1154 53.3862 97.6523 54.9231 99.5481 54.9231Z" fill="white"/>
<path fill-rule="evenodd" clip-rule="evenodd" d="M67.5096 54.9231C69.4054 54.9231 70.9423 53.3862 70.9423 51.4904C70.9423 49.5946 69.4054 48.0577 67.5096 48.0577C65.6138 48.0577 64.0769 49.5946 64.0769 51.4904C64.0769 53.3862 65.6138 54.9231 67.5096 54.9231Z" fill="white"/>
<path fill-rule="evenodd" clip-rule="evenodd" d="M35.4712 54.9231C37.367 54.9231 38.9038 53.3862 38.9038 51.4904C38.9038 49.5946 37.367 48.0577 35.4712 48.0577C33.5753 48.0577 32.0385 49.5946 32.0385 51.4904C32.0385 53.3862 33.5753 54.9231 35.4712 54.9231Z" fill="white"/>
<path fill-rule="evenodd" clip-rule="evenodd" d="M3.43269 54.9231C5.32852 54.9231 6.86538 53.3862 6.86538 51.4904C6.86538 49.5946 5.32852 48.0577 3.43269 48.0577C1.53687 48.0577 0 49.5946 0 51.4904C0 53.3862 1.53687 54.9231 3.43269 54.9231Z" fill="white"/>
<path fill-rule="evenodd" clip-rule="evenodd" d="M179.644 86.9615C181.54 86.9615 183.077 85.4247 183.077 83.5288C183.077 81.633 181.54 80.0962 179.644 80.0962C177.748 80.0962 176.212 81.633 176.212 83.5288C176.212 85.4247 177.748 86.9615 179.644 86.9615Z" fill="white"/>
<path fill-rule="evenodd" clip-rule="evenodd" d="M147.606 86.9615C149.502 86.9615 151.038 85.4247 151.038 83.5288C151.038 81.633 149.502 80.0962 147.606 80.0962C145.71 80.0962 144.173 81.633 144.173 83.5288C144.173 85.4247 145.71 86.9615 147.606 86.9615Z" fill="white"/>
<path fill-rule="evenodd" clip-rule="evenodd" d="M115.567 86.9615C117.463 86.9615 119 85.4247 119 83.5288C119 81.633 117.463 80.0962 115.567 80.0962C113.671 80.0962 112.135 81.633 112.135 83.5288C112.135 85.4247 113.671 86.9615 115.567 86.9615Z" fill="white"/>
<path fill-rule="evenodd" clip-rule="evenodd" d="M83.5288 86.9615C85.4247 86.9615 86.9615 85.4247 86.9615 83.5288C86.9615 81.633 85.4247 80.0962 83.5288 80.0962C81.633 80.0962 80.0962 81.633 80.0962 83.5288C80.0962 85.4247 81.633 86.9615 83.5288 86.9615Z" fill="white"/>
<path fill-rule="evenodd" clip-rule="evenodd" d="M51.4904 86.9615C53.3862 86.9615 54.9231 85.4247 54.9231 83.5288C54.9231 81.633 53.3862 80.0962 51.4904 80.0962C49.5946 80.0962 48.0577 81.633 48.0577 83.5288C48.0577 85.4247 49.5946 86.9615 51.4904 86.9615Z" fill="white"/>
<path fill-rule="evenodd" clip-rule="evenodd" d="M19.4519 86.9615C21.3477 86.9615 22.8846 85.4247 22.8846 83.5288C22.8846 81.633 21.3477 80.0962 19.4519 80.0962C17.5561 80.0962 16.0192 81.633 16.0192 83.5288C16.0192 85.4247 17.5561 86.9615 19.4519 86.9615Z" fill="white"/>
<path fill-rule="evenodd" clip-rule="evenodd" d="M163.625 86.9615C165.521 86.9615 167.058 85.4247 167.058 83.5288C167.058 81.633 165.521 80.0962 163.625 80.0962C161.729 80.0962 160.192 81.633 160.192 83.5288C160.192 85.4247 161.729 86.9615 163.625 86.9615Z" fill="white"/>
<path fill-rule="evenodd" clip-rule="evenodd" d="M131.587 86.9615C133.482 86.9615 135.019 85.4247 135.019 83.5288C135.019 81.633 133.482 80.0962 131.587 80.0962C129.691 80.0962 128.154 81.633 128.154 83.5288C128.154 85.4247 129.691 86.9615 131.587 86.9615Z" fill="white"/>
<path fill-rule="evenodd" clip-rule="evenodd" d="M99.5481 86.9615C101.444 86.9615 102.981 85.4247 102.981 83.5288C102.981 81.633 101.444 80.0962 99.5481 80.0962C97.6523 80.0962 96.1154 81.633 96.1154 83.5288C96.1154 85.4247 97.6523 86.9615 99.5481 86.9615Z" fill="white"/>
<path fill-rule="evenodd" clip-rule="evenodd" d="M67.5096 86.9615C69.4054 86.9615 70.9423 85.4247 70.9423 83.5288C70.9423 81.633 69.4054 80.0962 67.5096 80.0962C65.6138 80.0962 64.0769 81.633 64.0769 83.5288C64.0769 85.4247 65.6138 86.9615 67.5096 86.9615Z" fill="white"/>
<path fill-rule="evenodd" clip-rule="evenodd" d="M35.4712 86.9615C37.367 86.9615 38.9038 85.4247 38.9038 83.5288C38.9038 81.633 37.367 80.0962 35.4712 80.0962C33.5753 80.0962 32.0385 81.633 32.0385 83.5288C32.0385 85.4247 33.5753 86.9615 35.4712 86.9615Z" fill="white"/>
<path fill-rule="evenodd" clip-rule="evenodd" d="M3.43269 86.9615C5.32852 86.9615 6.86538 85.4247 6.86538 83.5288C6.86538 81.633 5.32852 80.0962 3.43269 80.0962C1.53687 80.0962 0 81.633 0 83.5288C0 85.4247 1.53687 86.9615 3.43269 86.9615Z" fill="white"/>
<path fill-rule="evenodd" clip-rule="evenodd" d="M179.644 119C181.54 119 183.077 117.463 183.077 115.567C183.077 113.671 181.54 112.135 179.644 112.135C177.748 112.135 176.212 113.671 176.212 115.567C176.212 117.463 177.748 119 179.644 119Z" fill="white"/>
<path fill-rule="evenodd" clip-rule="evenodd" d="M147.606 119C149.502 119 151.038 117.463 151.038 115.567C151.038 113.671 149.502 112.135 147.606 112.135C145.71 112.135 144.173 113.671 144.173 115.567C144.173 117.463 145.71 119 147.606 119Z" fill="white"/>
<path fill-rule="evenodd" clip-rule="evenodd" d="M115.567 119C117.463 119 119 117.463 119 115.567C119 113.671 117.463 112.135 115.567 112.135C113.671 112.135 112.135 113.671 112.135 115.567C112.135 117.463 113.671 119 115.567 119Z" fill="white"/>
<path fill-rule="evenodd" clip-rule="evenodd" d="M83.5288 119C85.4247 119 86.9615 117.463 86.9615 115.567C86.9615 113.671 85.4247 112.135 83.5288 112.135C81.633 112.135 80.0962 113.671 80.0962 115.567C80.0962 117.463 81.633 119 83.5288 119Z" fill="white"/>
<path fill-rule="evenodd" clip-rule="evenodd" d="M51.4904 119C53.3862 119 54.9231 117.463 54.9231 115.567C54.9231 113.671 53.3862 112.135 51.4904 112.135C49.5946 112.135 48.0577 113.671 48.0577 115.567C48.0577 117.463 49.5946 119 51.4904 119Z" fill="white"/>
<path fill-rule="evenodd" clip-rule="evenodd" d="M19.4519 119C21.3477 119 22.8846 117.463 22.8846 115.567C22.8846 113.671 21.3477 112.135 19.4519 112.135C17.5561 112.135 16.0192 113.671 16.0192 115.567C16.0192 117.463 17.5561 119 19.4519 119Z" fill="white"/>
<path fill-rule="evenodd" clip-rule="evenodd" d="M163.625 119C165.521 119 167.058 117.463 167.058 115.567C167.058 113.671 165.521 112.135 163.625 112.135C161.729 112.135 160.192 113.671 160.192 115.567C160.192 117.463 161.729 119 163.625 119Z" fill="white"/>
<path fill-rule="evenodd" clip-rule="evenodd" d="M131.587 119C133.482 119 135.019 117.463 135.019 115.567C135.019 113.671 133.482 112.135 131.587 112.135C129.691 112.135 128.154 113.671 128.154 115.567C128.154 117.463 129.691 119 131.587 119Z" fill="white"/>
<path fill-rule="evenodd" clip-rule="evenodd" d="M99.5481 119C101.444 119 102.981 117.463 102.981 115.567C102.981 113.671 101.444 112.135 99.5481 112.135C97.6523 112.135 96.1154 113.671 96.1154 115.567C96.1154 117.463 97.6523 119 99.5481 119Z" fill="white"/>
<path fill-rule="evenodd" clip-rule="evenodd" d="M67.5096 119C69.4054 119 70.9423 117.463 70.9423 115.567C70.9423 113.671 69.4054 112.135 67.5096 112.135C65.6138 112.135 64.0769 113.671 64.0769 115.567C64.0769 117.463 65.6138 119 67.5096 119Z" fill="white"/>
<path fill-rule="evenodd" clip-rule="evenodd" d="M35.4712 119C37.367 119 38.9038 117.463 38.9038 115.567C38.9038 113.671 37.367 112.135 35.4712 112.135C33.5753 112.135 32.0385 113.671 32.0385 115.567C32.0385 117.463 33.5753 119 35.4712 119Z" fill="white"/>
<path fill-rule="evenodd" clip-rule="evenodd" d="M3.43269 119C5.32852 119 6.86538 117.463 6.86538 115.567C6.86538 113.671 5.32852 112.135 3.43269 112.135C1.53687 112.135 0 113.671 0 115.567C0 117.463 1.53687 119 3.43269 119Z" fill="white"/>
<path fill-rule="evenodd" clip-rule="evenodd" d="M179.644 6.86538C181.54 6.86538 183.077 5.32852 183.077 3.43269C183.077 1.53687 181.54 0 179.644 0C177.748 0 176.212 1.53687 176.212 3.43269C176.212 5.32852 177.748 6.86538 179.644 6.86538Z" fill="white"/>
<path fill-rule="evenodd" clip-rule="evenodd" d="M147.606 6.86538C149.502 6.86538 151.038 5.32852 151.038 3.43269C151.038 1.53687 149.502 0 147.606 0C145.71 0 144.173 1.53687 144.173 3.43269C144.173 5.32852 145.71 6.86538 147.606 6.86538Z" fill="white"/>
<path fill-rule="evenodd" clip-rule="evenodd" d="M115.567 6.86538C117.463 6.86538 119 5.32852 119 3.43269C119 1.53687 117.463 0 115.567 0C113.671 0 112.135 1.53687 112.135 3.43269C112.135 5.32852 113.671 6.86538 115.567 6.86538Z" fill="white"/>
<path fill-rule="evenodd" clip-rule="evenodd" d="M83.5288 6.86538C85.4247 6.86538 86.9615 5.32852 86.9615 3.43269C86.9615 1.53687 85.4247 0 83.5288 0C81.633 0 80.0962 1.53687 80.0962 3.43269C80.0962 5.32852 81.633 6.86538 83.5288 6.86538Z" fill="white"/>
<path fill-rule="evenodd" clip-rule="evenodd" d="M51.4904 6.86538C53.3862 6.86538 54.9231 5.32852 54.9231 3.43269C54.9231 1.53687 53.3862 0 51.4904 0C49.5946 0 48.0577 1.53687 48.0577 3.43269C48.0577 5.32852 49.5946 6.86538 51.4904 6.86538Z" fill="white"/>
<path fill-rule="evenodd" clip-rule="evenodd" d="M19.4519 6.86538C21.3477 6.86538 22.8846 5.32852 22.8846 3.43269C22.8846 1.53687 21.3477 0 19.4519 0C17.5561 0 16.0192 1.53687 16.0192 3.43269C16.0192 5.32852 17.5561 6.86538 19.4519 6.86538Z" fill="white"/>
<path fill-rule="evenodd" clip-rule="evenodd" d="M163.625 6.86538C165.521 6.86538 167.058 5.32852 167.058 3.43269C167.058 1.53687 165.521 0 163.625 0C161.729 0 160.192 1.53687 160.192 3.43269C160.192 5.32852 161.729 6.86538 163.625 6.86538Z" fill="white"/>
<path fill-rule="evenodd" clip-rule="evenodd" d="M131.587 6.86538C133.482 6.86538 135.019 5.32852 135.019 3.43269C135.019 1.53687 133.482 0 131.587 0C129.691 0 128.154 1.53687 128.154 3.43269C128.154 5.32852 129.691 6.86538 131.587 6.86538Z" fill="white"/>
<path fill-rule="evenodd" clip-rule="evenodd" d="M99.5481 6.86538C101.444 6.86538 102.981 5.32852 102.981 3.43269C102.981 1.53687 101.444 0 99.5481 0C97.6523 0 96.1154 1.53687 96.1154 3.43269C96.1154 5.32852 97.6523 6.86538 99.5481 6.86538Z" fill="white"/>
<path fill-rule="evenodd" clip-rule="evenodd" d="M67.5096 6.86538C69.4054 6.86538 70.9423 5.32852 70.9423 3.43269C70.9423 1.53687 69.4054 0 67.5096 0C65.6138 0 64.0769 1.53687 64.0769 3.43269C64.0769 5.32852 65.6138 6.86538 67.5096 6.86538Z" fill="white"/>
<path fill-rule="evenodd" clip-rule="evenodd" d="M35.4712 6.86538C37.367 6.86538 38.9038 5.32852 38.9038 3.43269C38.9038 1.53687 37.367 0 35.4712 0C33.5753 0 32.0385 1.53687 32.0385 3.43269C32.0385 5.32852 33.5753 6.86538 35.4712 6.86538Z" fill="white"/>
<path fill-rule="evenodd" clip-rule="evenodd" d="M3.43269 6.86538C5.32852 6.86538 6.86538 5.32852 6.86538 3.43269C6.86538 1.53687 5.32852 0 3.43269 0C1.53687 0 0 1.53687 0 3.43269C0 5.32852 1.53687 6.86538 3.43269 6.86538Z" fill="white"/>
<path fill-rule="evenodd" clip-rule="evenodd" d="M179.644 38.9038C181.54 38.9038 183.077 37.367 183.077 35.4711C183.077 33.5753 181.54 32.0385 179.644 32.0385C177.748 32.0385 176.212 33.5753 176.212 35.4711C176.212 37.367 177.748 38.9038 179.644 38.9038Z" fill="white"/>
<path fill-rule="evenodd" clip-rule="evenodd" d="M147.606 38.9038C149.502 38.9038 151.038 37.367 151.038 35.4711C151.038 33.5753 149.502 32.0385 147.606 32.0385C145.71 32.0385 144.173 33.5753 144.173 35.4711C144.173 37.367 145.71 38.9038 147.606 38.9038Z" fill="white"/>
<path fill-rule="evenodd" clip-rule="evenodd" d="M115.567 38.9038C117.463 38.9038 119 37.367 119 35.4711C119 33.5753 117.463 32.0385 115.567 32.0385C113.671 32.0385 112.135 33.5753 112.135 35.4711C112.135 37.367 113.671 38.9038 115.567 38.9038Z" fill="white"/>
<path fill-rule="evenodd" clip-rule="evenodd" d="M83.5288 38.9038C85.4247 38.9038 86.9615 37.367 86.9615 35.4711C86.9615 33.5753 85.4247 32.0385 83.5288 32.0385C81.633 32.0385 80.0962 33.5753 80.0962 35.4711C80.0962 37.367 81.633 38.9038 83.5288 38.9038Z" fill="white"/>
<path fill-rule="evenodd" clip-rule="evenodd" d="M51.4904 38.9038C53.3862 38.9038 54.9231 37.367 54.9231 35.4711C54.9231 33.5753 53.3862 32.0385 51.4904 32.0385C49.5946 32.0385 48.0577 33.5753 48.0577 35.4711C48.0577 37.367 49.5946 38.9038 51.4904 38.9038Z" fill="white"/>
<path fill-rule="evenodd" clip-rule="evenodd" d="M19.4519 38.9038C21.3477 38.9038 22.8846 37.367 22.8846 35.4711C22.8846 33.5753 21.3477 32.0385 19.4519 32.0385C17.5561 32.0385 16.0192 33.5753 16.0192 35.4711C16.0192 37.367 17.5561 38.9038 19.4519 38.9038Z" fill="white"/>
<path fill-rule="evenodd" clip-rule="evenodd" d="M163.625 38.9038C165.521 38.9038 167.058 37.367 167.058 35.4711C167.058 33.5753 165.521 32.0385 163.625 32.0385C161.729 32.0385 160.192 33.5753 160.192 35.4711C160.192 37.367 161.729 38.9038 163.625 38.9038Z" fill="white"/>
<path fill-rule="evenodd" clip-rule="evenodd" d="M131.587 38.9038C133.482 38.9038 135.019 37.367 135.019 35.4711C135.019 33.5753 133.482 32.0385 131.587 32.0385C129.691 32.0385 128.154 33.5753 128.154 35.4711C128.154 37.367 129.691 38.9038 131.587 38.9038Z" fill="white"/>
<path fill-rule="evenodd" clip-rule="evenodd" d="M99.5481 38.9038C101.444 38.9038 102.981 37.367 102.981 35.4711C102.981 33.5753 101.444 32.0385 99.5481 32.0385C97.6523 32.0385 96.1154 33.5753 96.1154 35.4711C96.1154 37.367 97.6523 38.9038 99.5481 38.9038Z" fill="white"/>
<path fill-rule="evenodd" clip-rule="evenodd" d="M67.5096 38.9038C69.4054 38.9038 70.9423 37.367 70.9423 35.4711C70.9423 33.5753 69.4054 32.0385 67.5096 32.0385C65.6138 32.0385 64.0769 33.5753 64.0769 35.4711C64.0769 37.367 65.6138 38.9038 67.5096 38.9038Z" fill="white"/>
<path fill-rule="evenodd" clip-rule="evenodd" d="M35.4712 38.9038C37.367 38.9038 38.9038 37.367 38.9038 35.4711C38.9038 33.5753 37.367 32.0385 35.4712 32.0385C33.5753 32.0385 32.0385 33.5753 32.0385 35.4711C32.0385 37.367 33.5753 38.9038 35.4712 38.9038Z" fill="white"/>
<path fill-rule="evenodd" clip-rule="evenodd" d="M3.43269 38.9038C5.32852 38.9038 6.86538 37.367 6.86538 35.4711C6.86538 33.5753 5.32852 32.0385 3.43269 32.0385C1.53687 32.0385 0 33.5753 0 35.4711C0 37.367 1.53687 38.9038 3.43269 38.9038Z" fill="white"/>
<path fill-rule="evenodd" clip-rule="evenodd" d="M179.644 70.9423C181.54 70.9423 183.077 69.4054 183.077 67.5096C183.077 65.6138 181.54 64.0769 179.644 64.0769C177.748 64.0769 176.212 65.6138 176.212 67.5096C176.212 69.4054 177.748 70.9423 179.644 70.9423Z" fill="white"/>
<path fill-rule="evenodd" clip-rule="evenodd" d="M147.606 70.9423C149.502 70.9423 151.038 69.4054 151.038 67.5096C151.038 65.6138 149.502 64.0769 147.606 64.0769C145.71 64.0769 144.173 65.6138 144.173 67.5096C144.173 69.4054 145.71 70.9423 147.606 70.9423Z" fill="white"/>
<path fill-rule="evenodd" clip-rule="evenodd" d="M115.567 70.9423C117.463 70.9423 119 69.4054 119 67.5096C119 65.6138 117.463 64.0769 115.567 64.0769C113.671 64.0769 112.135 65.6138 112.135 67.5096C112.135 69.4054 113.671 70.9423 115.567 70.9423Z" fill="white"/>
<path fill-rule="evenodd" clip-rule="evenodd" d="M83.5288 70.9423C85.4247 70.9423 86.9615 69.4054 86.9615 67.5096C86.9615 65.6138 85.4247 64.0769 83.5288 64.0769C81.633 64.0769 80.0962 65.6138 80.0962 67.5096C80.0962 69.4054 81.633 70.9423 83.5288 70.9423Z" fill="white"/>
<path fill-rule="evenodd" clip-rule="evenodd" d="M51.4904 70.9423C53.3862 70.9423 54.9231 69.4054 54.9231 67.5096C54.9231 65.6138 53.3862 64.0769 51.4904 64.0769C49.5946 64.0769 48.0577 65.6138 48.0577 67.5096C48.0577 69.4054 49.5946 70.9423 51.4904 70.9423Z" fill="white"/>
<path fill-rule="evenodd" clip-rule="evenodd" d="M19.4519 70.9423C21.3477 70.9423 22.8846 69.4054 22.8846 67.5096C22.8846 65.6138 21.3477 64.0769 19.4519 64.0769C17.5561 64.0769 16.0192 65.6138 16.0192 67.5096C16.0192 69.4054 17.5561 70.9423 19.4519 70.9423Z" fill="white"/>
<path fill-rule="evenodd" clip-rule="evenodd" d="M163.625 70.9423C165.521 70.9423 167.058 69.4054 167.058 67.5096C167.058 65.6138 165.521 64.0769 163.625 64.0769C161.729 64.0769 160.192 65.6138 160.192 67.5096C160.192 69.4054 161.729 70.9423 163.625 70.9423Z" fill="white"/>
<path fill-rule="evenodd" clip-rule="evenodd" d="M131.587 70.9423C133.482 70.9423 135.019 69.4054 135.019 67.5096C135.019 65.6138 133.482 64.0769 131.587 64.0769C129.691 64.0769 128.154 65.6138 128.154 67.5096C128.154 69.4054 129.691 70.9423 131.587 70.9423Z" fill="white"/>
<path fill-rule="evenodd" clip-rule="evenodd" d="M99.5481 70.9423C101.444 70.9423 102.981 69.4054 102.981 67.5096C102.981 65.6138 101.444 64.0769 99.5481 64.0769C97.6523 64.0769 96.1154 65.6138 96.1154 67.5096C96.1154 69.4054 97.6523 70.9423 99.5481 70.9423Z" fill="white"/>
<path fill-rule="evenodd" clip-rule="evenodd" d="M67.5096 70.9423C69.4054 70.9423 70.9423 69.4054 70.9423 67.5096C70.9423 65.6138 69.4054 64.0769 67.5096 64.0769C65.6138 64.0769 64.0769 65.6138 64.0769 67.5096C64.0769 69.4054 65.6138 70.9423 67.5096 70.9423Z" fill="white"/>
<path fill-rule="evenodd" clip-rule="evenodd" d="M35.4712 70.9423C37.367 70.9423 38.9038 69.4054 38.9038 67.5096C38.9038 65.6138 37.367 64.0769 35.4712 64.0769C33.5753 64.0769 32.0385 65.6138 32.0385 67.5096C32.0385 69.4054 33.5753 70.9423 35.4712 70.9423Z" fill="white"/>
<path fill-rule="evenodd" clip-rule="evenodd" d="M3.43269 70.9423C5.32852 70.9423 6.86538 69.4054 6.86538 67.5096C6.86538 65.6138 5.32852 64.0769 3.43269 64.0769C1.53687 64.0769 0 65.6138 0 67.5096C0 69.4054 1.53687 70.9423 3.43269 70.9423Z" fill="white"/>
<path fill-rule="evenodd" clip-rule="evenodd" d="M179.644 102.981C181.54 102.981 183.077 101.444 183.077 99.5481C183.077 97.6523 181.54 96.1154 179.644 96.1154C177.748 96.1154 176.212 97.6523 176.212 99.5481C176.212 101.444 177.748 102.981 179.644 102.981Z" fill="white"/>
<path fill-rule="evenodd" clip-rule="evenodd" d="M147.606 102.981C149.502 102.981 151.038 101.444 151.038 99.5481C151.038 97.6523 149.502 96.1154 147.606 96.1154C145.71 96.1154 144.173 97.6523 144.173 99.5481C144.173 101.444 145.71 102.981 147.606 102.981Z" fill="white"/>
<path fill-rule="evenodd" clip-rule="evenodd" d="M115.567 102.981C117.463 102.981 119 101.444 119 99.5481C119 97.6523 117.463 96.1154 115.567 96.1154C113.671 96.1154 112.135 97.6523 112.135 99.5481C112.135 101.444 113.671 102.981 115.567 102.981Z" fill="white"/>
<path fill-rule="evenodd" clip-rule="evenodd" d="M83.5288 102.981C85.4247 102.981 86.9615 101.444 86.9615 99.5481C86.9615 97.6523 85.4247 96.1154 83.5288 96.1154C81.633 96.1154 80.0962 97.6523 80.0962 99.5481C80.0962 101.444 81.633 102.981 83.5288 102.981Z" fill="white"/>
<path fill-rule="evenodd" clip-rule="evenodd" d="M51.4904 102.981C53.3862 102.981 54.9231 101.444 54.9231 99.5481C54.9231 97.6523 53.3862 96.1154 51.4904 96.1154C49.5946 96.1154 48.0577 97.6523 48.0577 99.5481C48.0577 101.444 49.5946 102.981 51.4904 102.981Z" fill="white"/>
<path fill-rule="evenodd" clip-rule="evenodd" d="M19.4519 102.981C21.3477 102.981 22.8846 101.444 22.8846 99.5481C22.8846 97.6523 21.3477 96.1154 19.4519 96.1154C17.5561 96.1154 16.0192 97.6523 16.0192 99.5481C16.0192 101.444 17.5561 102.981 19.4519 102.981Z" fill="white"/>
<path fill-rule="evenodd" clip-rule="evenodd" d="M163.625 102.981C165.521 102.981 167.058 101.444 167.058 99.5481C167.058 97.6523 165.521 96.1154 163.625 96.1154C161.729 96.1154 160.192 97.6523 160.192 99.5481C160.192 101.444 161.729 102.981 163.625 102.981Z" fill="white"/>
<path fill-rule="evenodd" clip-rule="evenodd" d="M131.587 102.981C133.482 102.981 135.019 101.444 135.019 99.5481C135.019 97.6523 133.482 96.1154 131.587 96.1154C129.691 96.1154 128.154 97.6523 128.154 99.5481C128.154 101.444 129.691 102.981 131.587 102.981Z" fill="white"/>
<path fill-rule="evenodd" clip-rule="evenodd" d="M99.5481 102.981C101.444 102.981 102.981 101.444 102.981 99.5481C102.981 97.6523 101.444 96.1154 99.5481 96.1154C97.6523 96.1154 96.1154 97.6523 96.1154 99.5481C96.1154 101.444 97.6523 102.981 99.5481 102.981Z" fill="white"/>
<path fill-rule="evenodd" clip-rule="evenodd" d="M67.5096 102.981C69.4054 102.981 70.9423 101.444 70.9423 99.5481C70.9423 97.6523 69.4054 96.1154 67.5096 96.1154C65.6138 96.1154 64.0769 97.6523 64.0769 99.5481C64.0769 101.444 65.6138 102.981 67.5096 102.981Z" fill="white"/>
<path fill-rule="evenodd" clip-rule="evenodd" d="M35.4712 102.981C37.367 102.981 38.9038 101.444 38.9038 99.5481C38.9038 97.6523 37.367 96.1154 35.4712 96.1154C33.5753 96.1154 32.0385 97.6523 32.0385 99.5481C32.0385 101.444 33.5753 102.981 35.4712 102.981Z" fill="white"/>
<path fill-rule="evenodd" clip-rule="evenodd" d="M3.43269 102.981C5.32852 102.981 6.86538 101.444 6.86538 99.5481C6.86538 97.6523 5.32852 96.1154 3.43269 96.1154C1.53687 96.1154 0 97.6523 0 99.5481C0 101.444 1.53687 102.981 3.43269 102.981Z" fill="white"/>
</g>
</svg>
