<svg width="28" height="25" viewBox="0 0 28 25" fill="none" xmlns="http://www.w3.org/2000/svg">
<path fill-rule="evenodd" clip-rule="evenodd" d="M15.1836 10.9012C12.6956 10.9012 10.6051 9.19958 10.0124 6.89661H0.5V4.22686H10.0124C10.6051 1.92389 12.6956 0.222229 15.1836 0.222229C18.1326 0.222229 20.5231 2.61281 20.5231 5.56174C20.5231 8.51066 18.1326 10.9012 15.1836 10.9012ZM23.1929 4.22686H27.1975V6.89661H23.1929V4.22686ZM8.50926 24.25C6.02126 24.25 3.93071 22.5483 3.33797 20.2454H0.5V17.5756H3.33797C3.93071 15.2727 6.02126 13.571 8.50926 13.571C11.4582 13.571 13.8488 15.9616 13.8488 18.9105C13.8488 21.8594 11.4582 24.25 8.50926 24.25ZM16.5185 17.5756V20.2454H27.1975V17.5756H16.5185ZM11.179 18.9105C11.179 20.385 9.98372 21.5803 8.50926 21.5803C7.03479 21.5803 5.83951 20.385 5.83951 18.9105C5.83951 17.436 7.03479 16.2407 8.50926 16.2407C9.98372 16.2407 11.179 17.436 11.179 18.9105ZM17.8534 5.56173C17.8534 7.0362 16.6581 8.23149 15.1836 8.23149C13.7092 8.23149 12.5139 7.0362 12.5139 5.56173C12.5139 4.08727 13.7092 2.89198 15.1836 2.89198C16.6581 2.89198 17.8534 4.08727 17.8534 5.56173Z" fill="#C2C6D4"/>
</svg>
