<svg width="23" height="25" viewBox="0 0 23 25" fill="none" xmlns="http://www.w3.org/2000/svg">
<path fill-rule="evenodd" clip-rule="evenodd" d="M18.6444 10.7323C18.6444 6.28048 16.1894 3.19064 13.0131 2.26305C12.898 1.96547 12.7163 1.68882 12.4692 1.45668C11.625 0.663487 10.3095 0.663487 9.4653 1.45668C9.21877 1.68831 9.03725 1.96426 8.9222 2.2611C5.74175 3.18467 3.29018 6.26774 3.29018 10.7323C3.29018 13.621 2.7078 15.2396 1.62969 16.4126C1.44943 16.6087 0.961043 17.058 0.630226 17.3623C0.473719 17.5063 0.35248 17.6178 0.315819 17.6548C0.113452 17.86 0 18.1366 0 18.4248V19.715C0 20.8196 0.895433 21.715 2 21.715H6.67686C6.90263 22.8798 7.53463 23.6591 8.67754 24.3565C10.0835 25.2145 11.8511 25.2145 13.257 24.3565C14.2657 23.741 14.942 22.7951 15.2164 21.715H19.9345C21.0391 21.715 21.9345 20.8196 21.9345 19.715V18.4248C21.9345 18.1366 21.8211 17.86 21.6187 17.6548C21.5855 17.6211 21.4693 17.5139 21.3175 17.3738L21.3172 17.3736L21.3171 17.3735L21.3171 17.3735C20.9873 17.0692 20.4893 16.6099 20.3063 16.41C19.2275 15.2315 18.6444 13.6108 18.6444 10.7323ZM12.872 21.715H8.96971C9.12466 22.0033 9.38877 22.2209 9.82013 22.4842C10.5245 22.914 11.4101 22.914 12.1144 22.4842C12.4406 22.2851 12.6955 22.0217 12.872 21.715ZM18.6884 17.8911C18.9192 18.1432 19.4139 18.604 19.7411 18.9051V19.5216H2.19348V18.9056C2.51819 18.608 3.01431 18.1476 3.24468 17.8969C4.70962 16.3031 5.48366 14.1517 5.48366 10.7323C5.48366 6.5866 8.04207 4.16556 10.9673 4.16556C13.8843 4.16556 16.4509 6.59909 16.4509 10.7323C16.4509 14.1407 17.2252 16.2927 18.6884 17.8911Z" fill="#C2C6D4"/>
<circle cx="16.5689" cy="5.60165" r="5.60165" fill="#623CEA"/>
<path d="M16.2834 8.38209C16.0099 8.69654 15.5661 8.69654 15.2927 8.38209L13.7578 6.61743C13.4843 6.30314 13.4843 5.79292 13.7578 5.47863C14.0312 5.16418 14.475 5.16418 14.7485 5.47863L15.663 6.52987C15.732 6.60909 15.8441 6.60909 15.9132 6.52987L18.3894 3.68301C18.6628 3.36856 19.1066 3.36856 19.3801 3.68301C19.5114 3.83401 19.5852 4.03888 19.5852 4.25241C19.5852 4.46594 19.5114 4.67081 19.3801 4.82181L16.2834 8.38209Z" fill="white"/>
</svg>
