<svg width="38" height="42" viewBox="0 0 38 42" fill="none" xmlns="http://www.w3.org/2000/svg">
<path fill-rule="evenodd" clip-rule="evenodd" d="M31.9833 17.4838C31.9833 9.88771 27.7945 4.61554 22.3747 3.03281C22.1784 2.52505 21.8683 2.053 21.4467 1.65691C20.0062 0.30349 17.7617 0.30349 16.3212 1.65691C15.9005 2.05214 15.5908 2.52299 15.3945 3.02949C9.96773 4.60535 5.78465 9.86597 5.78465 17.4838C5.78465 22.4127 4.79094 25.1745 2.95138 27.176C2.64383 27.5107 1.81063 28.2772 1.24616 28.7964L1.24608 28.7965L1.24604 28.7965C0.978976 29.0422 0.77209 29.2325 0.709532 29.2955C0.364236 29.6457 0.170654 30.1177 0.170654 30.6095V34.2235C0.170654 35.3281 1.06609 36.2235 2.17066 36.2235H11.5633C11.9485 38.2109 13.0269 39.5406 14.977 40.7307C17.376 42.1946 20.392 42.1946 22.791 40.7307C24.512 39.6804 25.666 38.0663 26.1342 36.2235H35.5973C36.7019 36.2235 37.5973 35.3281 37.5973 34.2235V30.6095C37.5973 30.1177 37.4037 29.6457 37.0584 29.2955C37.0017 29.238 36.8033 29.055 36.5439 28.8157L36.5438 28.8156C35.981 28.2965 35.1314 27.5127 34.8191 27.1716C32.9783 25.1607 31.9833 22.3954 31.9833 17.4838ZM22.134 36.2235H15.4756C15.74 36.7153 16.1906 37.0867 16.9266 37.5359C18.1285 38.2693 19.6395 38.2693 20.8414 37.5359C21.398 37.1962 21.8329 36.7468 22.134 36.2235ZM32.0585 29.6988C32.4523 30.129 33.2963 30.9153 33.8547 31.4289V32.4809H3.91333V31.4297C4.46738 30.9221 5.3139 30.1365 5.70698 29.7088C8.20658 26.9891 9.52733 23.3183 9.52733 17.4839C9.52733 10.41 13.8927 6.27905 18.884 6.27905C23.8612 6.27905 28.2407 10.4314 28.2407 17.4839C28.2407 23.2996 29.5618 26.9715 32.0585 29.6988Z" fill="#C2C6D4"/>
</svg>
