<svg width="21" height="19" viewBox="0 0 21 19" fill="none" xmlns="http://www.w3.org/2000/svg">
<path d="M9.65213 9.39959C9.35287 8.7545 9.1875 8.01819 9.1875 7.20312C9.1875 6.38806 9.35287 5.56972 9.65213 4.80191C9.95072 4.03344 10.3832 3.31484 10.918 2.69863C11.4522 2.08306 12.0888 1.56791 12.7949 1.20828C13.5017 0.846688 14.2787 0.640625 15.0938 0.640625C15.9088 0.640625 16.6858 0.806 17.3926 1.10459C18.0994 1.40384 18.7353 1.83631 19.2695 2.3705C19.803 2.90469 20.2368 3.54125 20.5354 4.24803C20.8353 4.95416 21 5.73181 21 6.54688C21 7.36194 20.8346 8.13959 20.5354 8.84572C20.2368 9.5525 19.8043 10.1891 19.2695 10.7233C18.7359 11.2574 11.2068 18.0601 10.5 18.3594C9.79322 18.0601 2.26406 11.2574 1.72987 10.7233C1.19569 10.1891 0.763219 9.5525 0.463969 8.84572C0.165375 8.13959 0 7.36194 0 6.54688C0 5.73181 0.165375 4.95416 0.463969 4.24803C0.763219 3.54125 1.19503 2.90469 1.72987 2.3705C2.26406 1.83631 2.90063 1.40384 3.60741 1.10459C4.31353 0.806 5.09053 0.640625 5.90625 0.640625C6.72197 0.640625 7.49897 0.846687 8.20509 1.20697C8.91187 1.56791 9.54778 2.08241 10.0826 2.69797C10.6168 3.31419 11.0493 4.03278 11.3485 4.80125C11.6471 5.56972 11.8125 6.38806 11.8125 7.20312C11.8125 8.01819 11.6471 8.7545 11.3485 9.39959C11.0493 10.0447 10.6181 10.5992 10.0826 11.052" fill="#D5D8E3"/>
</svg>
