<?xml version="1.0" encoding="utf-8"?>
<!-- Generator: Adobe Illustrator 21.0.2, SVG Export Plug-In . SVG Version: 6.00 Build 0)  -->
<svg version="1.1" id="Слой_1" xmlns="http://www.w3.org/2000/svg" xmlns:xlink="http://www.w3.org/1999/xlink" x="0px" y="0px"
	 viewBox="0 0 23 23" style="enable-background:new 0 0 23 23;" xml:space="preserve">
<style type="text/css">
	.st0{fill:#513AF4;}
	.st1{fill:#FFFFFF;}
</style>
<path class="st0" d="M6,0h11c3.3,0,6,2.7,6,6v11c0,3.3-2.7,6-6,6H6c-3.3,0-6-2.7-6-6V6C0,2.7,2.7,0,6,0z"/>
<path class="st1" d="M11.2,17.6c-0.7,0.8-1.9,0.8-2.7,0l-4.1-4.4c-0.7-0.8-0.7-2,0-2.8c0.7-0.8,1.9-0.8,2.7,0L9.5,13
	c0.2,0.2,0.5,0.2,0.7,0L16.9,6c0.7-0.8,1.9-0.8,2.7,0c0.4,0.4,0.6,0.9,0.6,1.4s-0.2,1-0.6,1.4L11.2,17.6z"/>
</svg>
