<svg width="26" height="26" viewBox="0 0 26 26" fill="none" xmlns="http://www.w3.org/2000/svg">
<path fill-rule="evenodd" clip-rule="evenodd" d="M2.36059 0.856233C1.63909 0.495483 0.809349 1.09353 0.923428 1.89208L2.45193 12.5916C2.46499 12.683 2.53206 12.7574 2.6216 12.7798C2.85087 12.8371 2.85087 13.1629 2.6216 13.2202C2.53206 13.2426 2.46499 13.317 2.45193 13.4083L0.923428 24.1079C0.809349 24.9064 1.63909 25.5045 2.36059 25.1437L24.8592 13.8944C25.5963 13.5259 25.5963 12.4741 24.8592 12.1056L2.36059 0.856233ZM5.51213 10.7536C5.11769 10.655 4.82221 10.3274 4.76471 9.92492L4.28306 6.55331C4.16898 5.75476 4.99872 5.15672 5.72022 5.51747L18.8964 12.1055C19.6334 12.4741 19.6334 13.5259 18.8964 13.8944L5.72022 20.4825C4.99872 20.8432 4.16898 20.2452 4.28306 19.4466L4.76471 16.075C4.82221 15.6725 5.11769 15.3449 5.51213 15.2463L10.6169 13.9701C11.6269 13.7176 11.6269 12.2823 10.6169 12.0298L5.51213 10.7536Z" fill="#623CEA"/>
</svg>
