<svg width="24" height="24" viewBox="0 0 24 24" fill="none" xmlns="http://www.w3.org/2000/svg">
<path d="M22.9843 21.7038L17.8002 16.5197C19.1822 14.8516 20.0133 12.7121 20.0133 10.3816C20.0133 5.06723 15.691 0.75 10.3816 0.75C5.06723 0.75 0.75 5.07228 0.75 10.3816C0.75 15.6911 5.0722 20.0133 10.3816 20.0133C12.7121 20.0133 14.8516 19.1822 16.5197 17.8002L21.7038 22.9843C21.8773 23.1578 22.1115 23.2527 22.3441 23.2527C22.5716 23.2527 22.8085 23.166 22.986 22.9826C23.3356 22.6312 23.3351 22.0546 22.9843 21.7038ZM2.56235 10.3816C2.56235 6.07048 6.07028 2.56723 10.3767 2.56723C14.6879 2.56723 18.1911 6.07516 18.1911 10.3816C18.1911 14.6883 14.6877 18.2009 10.3767 18.2009C6.07048 18.2009 2.56235 14.693 2.56235 10.3816Z" fill="#623CEA" stroke="#623CEA" stroke-width="0.5"/>
</svg>
