<svg width="28" height="28" viewBox="0 0 28 28" fill="none" xmlns="http://www.w3.org/2000/svg">
<path fill-rule="evenodd" clip-rule="evenodd" d="M24.6667 4.66666V19.3333C26.1394 19.3333 27.3333 18.1394 27.3333 16.6667V3.33332C27.3333 1.86056 26.1394 0.666656 24.6667 0.666656H11.3333C9.86058 0.666656 8.66667 1.86056 8.66667 3.33332H23.3333C24.0697 3.33332 24.6667 3.93028 24.6667 4.66666ZM20.6667 23.3333V8.66666C20.6667 7.93028 20.0697 7.33332 19.3333 7.33332H4.66667C4.66667 5.86056 5.86058 4.66666 7.33334 4.66666H20.6667C22.1394 4.66666 23.3333 5.86056 23.3333 7.33332V20.6667C23.3333 22.1394 22.1394 23.3333 20.6667 23.3333ZM16.6667 8.66666H3.33334C1.86058 8.66666 0.666672 9.86056 0.666672 11.3333V24.6667C0.666672 26.1394 1.86058 27.3333 3.33334 27.3333H16.6667C18.1394 27.3333 19.3333 26.1394 19.3333 24.6667V11.3333C19.3333 9.86056 18.1394 8.66666 16.6667 8.66666ZM3.33334 24.6667V11.3333H16.6667V24.6667H3.33334Z" fill="#623CEA"/>
</svg>
