<?xml version="1.0" encoding="utf-8"?>
<!-- Generator: Adobe Illustrator 21.0.2, SVG Export Plug-In . SVG Version: 6.00 Build 0)  -->
<svg version="1.1" id="Слой_1" xmlns="http://www.w3.org/2000/svg" xmlns:xlink="http://www.w3.org/1999/xlink" x="0px" y="0px"
	 viewBox="0 0 134 36" style="enable-background:new 0 0 134 36;" xml:space="preserve">
<style type="text/css">
	.st0{fill:#FFFFFF;}
	.st1{fill:#D6D9E4;}
</style>
<g>
	<path class="st0" d="M18,0h98c9.9,0,18,8.1,18,18l0,0c0,9.9-8.1,18-18,18H18C8.1,36,0,27.9,0,18l0,0C0,8.1,8.1,0,18,0z"/>
</g>
<path class="st1" d="M21.9,11.4c0.3-0.9,1.6-0.9,1.9,0l1,2.9c0.1,0.4,0.5,0.7,1,0.7h3.1c1,0,1.4,1.2,0.6,1.8l-2.5,1.8
	c-0.4,0.3-0.5,0.7-0.4,1.1l1,2.9c0.3,0.9-0.8,1.7-1.5,1.1l-2.5-1.8c-0.4-0.3-0.8-0.3-1.2,0l-2.5,1.8c-0.8,0.6-1.8-0.2-1.5-1.1l1-2.9
	c0.1-0.4,0-0.9-0.4-1.1l-2.5-1.8c-0.8-0.6-0.4-1.8,0.6-1.8H20c0.4,0,0.8-0.3,1-0.7L21.9,11.4z"/>
</svg>
