<svg width="26" height="26" viewBox="0 0 26 26" fill="none" xmlns="http://www.w3.org/2000/svg">
<path d="M24.9692 23.6018L19.2993 17.9319C20.8116 16.1137 21.7214 13.7787 21.7214 11.2344C21.7214 5.44949 17.0165 0.75 11.2371 0.75C5.45215 0.75 0.752655 5.45499 0.752655 11.2344C0.752655 17.0139 5.45756 21.7188 11.2371 21.7188C13.7813 21.7188 16.1164 20.8089 17.9345 19.2966L23.6045 24.9666C23.7895 25.1516 24.0392 25.2527 24.2868 25.2527C24.5295 25.2527 24.7818 25.1602 24.9709 24.9649C25.3436 24.5904 25.343 23.9756 24.9692 23.6018ZM2.6843 11.2344C2.6843 6.51881 6.52127 2.68697 11.2317 2.68697C15.9473 2.68697 19.7792 6.52394 19.7792 11.2344C19.7792 15.9451 15.9471 19.7871 11.2317 19.7871C6.52147 19.7871 2.6843 15.9502 2.6843 11.2344Z" fill="#C2C6D4" stroke="#C2C6D4" stroke-width="0.5"/>
</svg>
