<?xml version="1.0" encoding="utf-8"?>
<!-- Generator: Adobe Illustrator 21.0.2, SVG Export Plug-In . SVG Version: 6.00 Build 0)  -->
<svg version="1.1" id="Слой_1" xmlns="http://www.w3.org/2000/svg" xmlns:xlink="http://www.w3.org/1999/xlink" x="0px" y="0px"
	 viewBox="0 0 153 36" style="enable-background:new 0 0 153 36;" xml:space="preserve">
<style type="text/css">
	.st0{fill:#FFFFFF;}
	.st1{fill:#BFBBCA;}
	.st2{clip-path:url(#SVGID_2_);}
	.st3{fill:#623CEA;}
</style>
<g>
	<path class="st0" d="M18,0h117c9.9,0,18,8.1,18,18l0,0c0,9.9-8.1,18-18,18H18C8.1,36,0,27.9,0,18l0,0C0,8.1,8.1,0,18,0z"/>
</g>
<path class="st1" d="M49.7,22v-9.1h7.4V22h-1.6v-7.7h-4.2V22H49.7z M59.3,24.1v-8.9h1.6v1.1c0.6-0.9,1.4-1.3,2.3-1.3
	c0.9,0,1.6,0.3,2.2,1c0.6,0.6,0.9,1.5,0.9,2.6c0,1.1-0.3,1.9-0.9,2.6c-0.6,0.6-1.4,1-2.2,1c-0.9,0-1.7-0.4-2.3-1.2v3.1H59.3z
	 M62.9,20.8c0.6,0,1-0.2,1.4-0.6c0.4-0.4,0.6-0.9,0.6-1.6c0-0.7-0.2-1.2-0.6-1.6c-0.4-0.4-0.8-0.6-1.4-0.6s-1,0.2-1.4,0.6
	c-0.4,0.4-0.6,0.9-0.6,1.6c0,0.6,0.2,1.2,0.6,1.6C61.8,20.6,62.3,20.8,62.9,20.8z M71.3,22.2c-1,0-1.9-0.3-2.6-1
	c-0.7-0.7-1-1.5-1-2.5s0.4-1.8,1.1-2.5c0.7-0.7,1.6-1.1,2.6-1.1s1.9,0.3,2.6,1c0.7,0.7,1.1,1.5,1.1,2.5c0,1-0.4,1.8-1.1,2.5
	C73.2,21.8,72.3,22.2,71.3,22.2z M71.3,20.8c0.6,0,1.1-0.2,1.5-0.6c0.4-0.4,0.6-0.9,0.6-1.6c0-0.6-0.2-1.1-0.6-1.6
	c-0.4-0.4-0.9-0.7-1.5-0.7c-0.6,0-1.1,0.2-1.5,0.6c-0.4,0.4-0.6,0.9-0.6,1.6c0,0.6,0.2,1.1,0.6,1.6C70.2,20.6,70.7,20.8,71.3,20.8z
	 M80.6,24.1v-2.6c-0.4,0.4-0.9,0.6-1.6,0.6c-0.8,0-1.5-0.3-2-0.9c-0.5-0.6-0.8-1.5-0.8-2.6c0-1.1,0.3-2,0.8-2.6
	c0.5-0.6,1.2-0.9,2-0.9c0.6,0,1.1,0.2,1.6,0.7v-2.8h1.6v2.8c0.4-0.5,1-0.7,1.6-0.7c0.8,0,1.5,0.3,2,1c0.5,0.6,0.8,1.5,0.8,2.6
	c0,1.1-0.3,2-0.8,2.6c-0.5,0.6-1.2,0.9-2,0.9c-0.6,0-1.2-0.2-1.6-0.6v2.6H80.6z M79.5,20.8c0.4,0,0.8-0.2,1.1-0.5v-3.5
	c-0.3-0.3-0.7-0.5-1.1-0.5c-0.5,0-0.9,0.2-1.2,0.6c-0.3,0.4-0.4,0.9-0.4,1.6c0,0.7,0.1,1.2,0.4,1.6C78.5,20.6,78.9,20.8,79.5,20.8z
	 M83.3,20.8c0.5,0,1-0.2,1.2-0.6c0.3-0.4,0.4-0.9,0.4-1.6c0-0.7-0.1-1.2-0.4-1.6c-0.3-0.4-0.7-0.6-1.2-0.6c-0.4,0-0.7,0.2-1.1,0.5
	v3.5C82.5,20.6,82.9,20.8,83.3,20.8z M88.1,22v-6.9h1.5v4.6c1.4-2,2.5-3.6,3.3-4.6h1.5V22h-1.5v-4.6L89.6,22H88.1z M96.3,22.1
	c-0.3,0-0.6,0-0.9-0.1l0.1-1.3c0.1,0,0.3,0.1,0.5,0.1c0.2,0,0.3,0,0.4-0.1c0.1-0.1,0.2-0.2,0.4-0.4c0.1-0.2,0.2-0.5,0.3-0.9
	s0.1-0.9,0.2-1.6c0-0.7,0.1-1.6,0.1-2.6h5.2V22h-1.6v-5.5h-2.1c0,1,0,1.8-0.1,2.5c-0.1,0.7-0.2,1.2-0.3,1.6
	c-0.1,0.4-0.3,0.7-0.5,0.9c-0.2,0.2-0.4,0.4-0.7,0.4C96.9,22,96.7,22.1,96.3,22.1z M104.5,22v-6.9h1.6v2.4h1.6c0.8,0,1.5,0.2,2,0.5
	c0.5,0.4,0.8,0.9,0.8,1.6c0,0.7-0.2,1.3-0.7,1.7c-0.5,0.4-1.1,0.6-1.9,0.6H104.5z M106,20.7h1.5c0.4,0,0.7-0.1,0.9-0.3
	c0.2-0.2,0.3-0.4,0.3-0.8c0-0.3-0.1-0.5-0.3-0.7c-0.2-0.2-0.5-0.2-0.9-0.2H106V20.7z M115.8,22v-9.1h4.1c1,0,1.8,0.3,2.4,0.8
	c0.4,0.4,0.6,0.9,0.6,1.5c0,0.9-0.4,1.6-1.3,2c1.2,0.4,1.8,1.2,1.8,2.2c0,0.8-0.3,1.4-0.9,1.8c-0.6,0.4-1.4,0.7-2.5,0.7H115.8z
	 M117.4,16.7h2.2c0.5,0,0.9-0.1,1.2-0.3c0.3-0.2,0.5-0.5,0.5-0.9c0-0.4-0.1-0.6-0.4-0.8c-0.3-0.2-0.7-0.3-1.2-0.3h-2.3V16.7z
	 M117.4,20.6h2.7c0.6,0,1-0.1,1.3-0.3c0.3-0.2,0.5-0.5,0.5-0.9c0-0.8-0.6-1.2-1.9-1.2h-2.5V20.6z M125.2,22v-9.1h1.6v4.6l4.3-4.6h2
	l-3.8,3.9l4,5.2h-1.9l-3.1-4.1l-1.4,1.5V22H125.2z"/>
<g>
	<defs>
		<rect id="SVGID_1_" x="16" y="6" width="24" height="24"/>
	</defs>
	<clipPath id="SVGID_2_">
		<use xlink:href="#SVGID_1_"  style="overflow:visible;"/>
	</clipPath>
	<g class="st2">
		<path class="st3" d="M39.9,23.5c0-0.1-0.1-0.1-0.1-0.2c-0.4-0.8-1.2-1.7-2.4-2.8l0,0l0,0l0,0h0c-0.5-0.5-0.9-0.8-1-1
			c-0.3-0.3-0.3-0.7-0.2-1c0.1-0.3,0.5-0.8,1.1-1.6c0.3-0.4,0.6-0.8,0.8-1.1c1.4-1.9,2.1-3.1,1.9-3.7L39.9,12
			c-0.1-0.1-0.2-0.1-0.4-0.2c-0.2-0.1-0.5-0.1-0.8,0l-3.6,0c-0.1,0-0.1,0-0.3,0c-0.1,0-0.2,0-0.2,0l-0.1,0l0,0c0,0-0.1,0.1-0.1,0.1
			c0,0.1-0.1,0.1-0.1,0.2c-0.4,1-0.8,1.9-1.3,2.8c-0.3,0.5-0.6,1-0.8,1.3c-0.3,0.4-0.5,0.7-0.6,0.8c-0.2,0.2-0.3,0.3-0.5,0.4
			c-0.1,0.1-0.2,0.2-0.3,0.1c-0.1,0-0.1,0-0.2,0c-0.1-0.1-0.2-0.2-0.3-0.3c-0.1-0.1-0.1-0.3-0.1-0.5c0-0.2,0-0.4,0-0.5
			c0-0.1,0-0.3,0-0.6c0-0.3,0-0.4,0-0.5c0-0.3,0-0.7,0-1c0-0.4,0-0.7,0-0.9c0-0.2,0-0.4,0-0.7s0-0.4,0-0.6c0-0.1-0.1-0.3-0.1-0.4
			c-0.1-0.1-0.1-0.2-0.3-0.3c-0.1-0.1-0.3-0.1-0.4-0.2c-0.4-0.1-1-0.2-1.7-0.2c-1.5,0-2.5,0.1-3,0.3c-0.2,0.1-0.3,0.2-0.5,0.4
			c-0.2,0.2-0.2,0.3-0.1,0.3c0.5,0.1,0.9,0.3,1.1,0.5l0.1,0.2c0.1,0.1,0.1,0.3,0.2,0.6c0.1,0.3,0.1,0.6,0.1,0.9c0,0.6,0,1.1,0,1.6
			c0,0.4-0.1,0.8-0.1,1c0,0.2-0.1,0.4-0.2,0.6c-0.1,0.1-0.1,0.2-0.2,0.3c0,0,0,0.1-0.1,0.1c-0.1,0-0.2,0.1-0.3,0.1
			c-0.1,0-0.3-0.1-0.4-0.2c-0.2-0.1-0.3-0.3-0.5-0.5c-0.2-0.2-0.4-0.5-0.6-0.9c-0.2-0.4-0.5-0.8-0.7-1.3l-0.2-0.4
			c-0.1-0.2-0.3-0.6-0.5-1c-0.2-0.4-0.4-0.9-0.6-1.3c-0.1-0.2-0.2-0.3-0.3-0.4l-0.1,0c0,0-0.1-0.1-0.2-0.1c-0.1,0-0.2-0.1-0.3-0.1
			l-3.4,0c-0.3,0-0.6,0.1-0.7,0.2L16,12.1c0,0,0,0.1,0,0.2s0,0.2,0.1,0.3c0.5,1.2,1,2.3,1.6,3.4c0.6,1.1,1.1,2,1.5,2.6
			c0.4,0.7,0.9,1.3,1.3,1.9c0.4,0.6,0.7,1,0.9,1.1c0.1,0.2,0.3,0.3,0.3,0.4l0.3,0.3c0.2,0.2,0.5,0.4,0.9,0.7
			c0.4,0.3,0.8,0.6,1.3,0.8c0.5,0.3,1,0.5,1.6,0.7c0.6,0.2,1.2,0.2,1.8,0.2h1.4c0.3,0,0.5-0.1,0.7-0.3l0-0.1c0,0,0.1-0.1,0.1-0.2
			c0-0.1,0-0.2,0-0.3c0-0.4,0-0.7,0.1-1c0.1-0.3,0.1-0.5,0.2-0.6c0.1-0.1,0.2-0.3,0.3-0.4c0.1-0.1,0.2-0.2,0.2-0.2c0,0,0.1,0,0.1,0
			c0.2-0.1,0.4,0,0.7,0.2c0.3,0.2,0.5,0.4,0.8,0.7c0.2,0.3,0.5,0.6,0.9,1c0.3,0.4,0.6,0.6,0.9,0.8l0.2,0.2c0.2,0.1,0.4,0.2,0.7,0.3
			c0.3,0.1,0.5,0.1,0.7,0.1l3.2,0c0.3,0,0.6-0.1,0.7-0.2c0.2-0.1,0.3-0.2,0.3-0.3c0-0.1,0-0.3,0-0.4C39.9,23.7,39.9,23.6,39.9,23.5z
			"/>
	</g>
</g>
</svg>
